# xmcd
#
# Track frame offsets: 
#        150
#        14985
#        37447
#        66220
#        86342
#        124380
#        136947
#        152297
#        168784
#        198955
#        216802
#
# Disc length: 3228 seconds
#
# Revision: 4
# Processed by: cddbd v1.5.2PL0 Copyright (c) Steve Scherf et al.
# Submitted via: ExactAudioCopy v0.99pb4
#
DISCID=990c9a0b
DTITLE=Mem Shannon - 2nd Blues Album
DYEAR=1997
DGENRE=Blues
TTITLE0=Wrong People In Charge
TTITLE1=Old Men
TTITLE2=Charity
TTITLE3=Say That Then (The Parlez-Vous Francais Song)
TTITLE4=One Thin Dime
TTITLE5=Mirror Mirror
TTITLE6=My Humble Opinion
TTITLE7=Down Broke
TTITLE8=Do You 'Yuh' What I Say
TTITLE9=Mr. Blues
TTITLE10=The Blues Is Back
EXTD=
EXTT0=
EXTT1=
EXTT2=
EXTT3=
EXTT4=
EXTT5=
EXTT6=
EXTT7=
EXTT8=
EXTT9=
EXTT10=
PLAYORDER=
